# xmcd
#
# Track frame offsets: 
#        183
#        14503
#        25673
#        39590
#        52830
#        72240
#        83643
#        94743
#        107563
#        124343
#        135223
#        150530
#
# Disc length: 2244 seconds
#
# Revision: 2
# Processed by: cddbd v1.5.2PL0 Copyright (c) Steve Scherf et al.
# Submitted via: ExactAudioCopy v1.0b4
#
DISCID=8a08c20c
DTITLE=Os Coroas - Choros Inesqueciveis
DYEAR=1994
DGENRE=Choro
TTITLE0=Pedacinho do Ceu
TTITLE1=Tico-Tico no Fuba
TTITLE2=Odeon
TTITLE3=Flor Amorosa
TTITLE4=Dece de Coco
TTITLE5=Urubu Malandro
TTITLE6=Delicado
TTITLE7=Brasilirinho
TTITLE8=Noites Cariocas
TTITLE9=Na Gloria
TTITLE10=Saxofone por que Choras?
TTITLE11=Lamento
EXTD=
EXTT0=
EXTT1=
EXTT2=
EXTT3=
EXTT4=
EXTT5=
EXTT6=
EXTT7=
EXTT8=
EXTT9=
EXTT10=
EXTT11=
PLAYORDER=
